<mxfile host="app.diagrams.net" agent="Mozilla/5.0 (Windows NT 10.0; Win64; x64) AppleWebKit/537.36 (KHTML, like Gecko) Chrome/129.0.0.0 Safari/537.36" version="24.7.17">
  <diagram name="Страница — 1" id="0BWbeIZOzvrYTGuyBiQ_">
    <mxGraphModel dx="1537" dy="808" grid="1" gridSize="10" guides="1" tooltips="1" connect="1" arrows="1" fold="1" page="1" pageScale="1" pageWidth="827" pageHeight="1169" math="0" shadow="0">
      <root>
        <mxCell id="0" />
        <mxCell id="1" parent="0" />
        <mxCell id="D8Gry01iI4OsWeRALfT7-7" style="edgeStyle=orthogonalEdgeStyle;rounded=0;orthogonalLoop=1;jettySize=auto;html=1;exitX=1;exitY=0.5;exitDx=0;exitDy=0;entryX=0;entryY=0.5;entryDx=0;entryDy=0;" parent="1" source="D8Gry01iI4OsWeRALfT7-1" target="D8Gry01iI4OsWeRALfT7-4" edge="1">
          <mxGeometry relative="1" as="geometry" />
        </mxCell>
        <mxCell id="D8Gry01iI4OsWeRALfT7-1" value="Заполнить форму на составление заявки" style="rounded=1;whiteSpace=wrap;html=1;" parent="1" vertex="1">
          <mxGeometry x="80" y="80" width="120" height="60" as="geometry" />
        </mxCell>
        <mxCell id="D8Gry01iI4OsWeRALfT7-2" value="пользователь (пассажир)" style="text;html=1;align=center;verticalAlign=middle;whiteSpace=wrap;rounded=0;" parent="1" vertex="1">
          <mxGeometry x="150" y="170" width="60" height="30" as="geometry" />
        </mxCell>
        <mxCell id="07kaSCb7XOvTgPHqQ_OD-21" style="edgeStyle=orthogonalEdgeStyle;rounded=0;orthogonalLoop=1;jettySize=auto;html=1;exitX=1;exitY=0.5;exitDx=0;exitDy=0;entryX=0;entryY=0.5;entryDx=0;entryDy=0;" edge="1" parent="1" source="D8Gry01iI4OsWeRALfT7-4" target="D8Gry01iI4OsWeRALfT7-5">
          <mxGeometry relative="1" as="geometry" />
        </mxCell>
        <mxCell id="D8Gry01iI4OsWeRALfT7-4" value="Обработать заявку&lt;span style=&quot;color: rgba(0, 0, 0, 0); font-family: monospace; font-size: 0px; text-align: start; text-wrap: nowrap;&quot;&gt;%3CmxGraphModel%3E%3Croot%3E%3CmxCell%20id%3D%220%22%2F%3E%3CmxCell%20id%3D%221%22%20parent%3D%220%22%2F%3E%3CmxCell%20id%3D%222%22%20value%3D%22%D0%97%D0%B0%D0%BF%D0%BE%D0%BB%D0%BD%D0%B8%D1%82%D1%8C%20%D1%84%D0%BE%D1%80%D0%BC%D1%83%20%D0%B7%D0%B0%D1%8F%D0%B2%D0%BA%D0%B8%22%20style%3D%22rounded%3D1%3BwhiteSpace%3Dwrap%3Bhtml%3D1%3B%22%20vertex%3D%221%22%20parent%3D%221%22%3E%3CmxGeometry%20x%3D%2280%22%20y%3D%2280%22%20width%3D%22120%22%20height%3D%2260%22%20as%3D%22geometry%22%2F%3E%3C%2FmxCell%3E%3C%2Froot%3E%3C%2FmxGraphModel%3E&lt;/span&gt;" style="rounded=1;whiteSpace=wrap;html=1;" parent="1" vertex="1">
          <mxGeometry x="300" y="230" width="120" height="60" as="geometry" />
        </mxCell>
        <mxCell id="07kaSCb7XOvTgPHqQ_OD-19" style="edgeStyle=orthogonalEdgeStyle;rounded=0;orthogonalLoop=1;jettySize=auto;html=1;exitX=1;exitY=0.5;exitDx=0;exitDy=0;entryX=0;entryY=0.5;entryDx=0;entryDy=0;" edge="1" parent="1" source="D8Gry01iI4OsWeRALfT7-5" target="D8Gry01iI4OsWeRALfT7-10">
          <mxGeometry relative="1" as="geometry" />
        </mxCell>
        <mxCell id="D8Gry01iI4OsWeRALfT7-5" value="Назначить/отменить заявку на сотрудника" style="rounded=1;whiteSpace=wrap;html=1;" parent="1" vertex="1">
          <mxGeometry x="590" y="445" width="120" height="60" as="geometry" />
        </mxCell>
        <mxCell id="07kaSCb7XOvTgPHqQ_OD-20" style="edgeStyle=orthogonalEdgeStyle;rounded=0;orthogonalLoop=1;jettySize=auto;html=1;exitX=1;exitY=0.5;exitDx=0;exitDy=0;entryX=0;entryY=0.5;entryDx=0;entryDy=0;" edge="1" parent="1" source="D8Gry01iI4OsWeRALfT7-6" target="D8Gry01iI4OsWeRALfT7-5">
          <mxGeometry relative="1" as="geometry" />
        </mxCell>
        <mxCell id="D8Gry01iI4OsWeRALfT7-6" value="Определить свободных сотрудников" style="rounded=1;whiteSpace=wrap;html=1;" parent="1" vertex="1">
          <mxGeometry x="300" y="400" width="120" height="60" as="geometry" />
        </mxCell>
        <mxCell id="07kaSCb7XOvTgPHqQ_OD-25" style="edgeStyle=orthogonalEdgeStyle;rounded=0;orthogonalLoop=1;jettySize=auto;html=1;exitX=1;exitY=0.5;exitDx=0;exitDy=0;entryX=0;entryY=0.5;entryDx=0;entryDy=0;" edge="1" parent="1" source="D8Gry01iI4OsWeRALfT7-10" target="D8Gry01iI4OsWeRALfT7-12">
          <mxGeometry relative="1" as="geometry" />
        </mxCell>
        <mxCell id="07kaSCb7XOvTgPHqQ_OD-31" style="edgeStyle=orthogonalEdgeStyle;rounded=0;orthogonalLoop=1;jettySize=auto;html=1;exitX=1;exitY=0.5;exitDx=0;exitDy=0;entryX=0;entryY=0.75;entryDx=0;entryDy=0;" edge="1" parent="1" source="D8Gry01iI4OsWeRALfT7-10" target="D8Gry01iI4OsWeRALfT7-6">
          <mxGeometry relative="1" as="geometry">
            <Array as="points">
              <mxPoint x="940" y="525" />
              <mxPoint x="940" y="600" />
              <mxPoint x="280" y="600" />
              <mxPoint x="280" y="445" />
            </Array>
          </mxGeometry>
        </mxCell>
        <mxCell id="D8Gry01iI4OsWeRALfT7-10" value="Составить актуальное расписание" style="rounded=1;whiteSpace=wrap;html=1;" parent="1" vertex="1">
          <mxGeometry x="800" y="495" width="120" height="60" as="geometry" />
        </mxCell>
        <mxCell id="D8Gry01iI4OsWeRALfT7-12" value="Отображение/оповещение готового расписания" style="rounded=1;whiteSpace=wrap;html=1;" parent="1" vertex="1">
          <mxGeometry x="1020" y="570" width="120" height="60" as="geometry" />
        </mxCell>
        <mxCell id="D8Gry01iI4OsWeRALfT7-13" value="заявка" style="text;html=1;align=center;verticalAlign=middle;whiteSpace=wrap;rounded=0;" parent="1" vertex="1">
          <mxGeometry x="220" y="80" width="60" height="30" as="geometry" />
        </mxCell>
        <mxCell id="D8Gry01iI4OsWeRALfT7-14" value="обработанная заявка" style="text;html=1;align=center;verticalAlign=middle;whiteSpace=wrap;rounded=0;" parent="1" vertex="1">
          <mxGeometry x="440" y="220" width="60" height="30" as="geometry" />
        </mxCell>
        <mxCell id="D8Gry01iI4OsWeRALfT7-15" value="словарь: работник - свободные часы" style="text;html=1;align=center;verticalAlign=middle;whiteSpace=wrap;rounded=0;" parent="1" vertex="1">
          <mxGeometry x="430" y="380" width="60" height="30" as="geometry" />
        </mxCell>
        <mxCell id="D8Gry01iI4OsWeRALfT7-17" value="заявка с прикрепленной к ней сотрудником" style="text;html=1;align=center;verticalAlign=middle;whiteSpace=wrap;rounded=0;" parent="1" vertex="1">
          <mxGeometry x="730" y="420" width="60" height="30" as="geometry" />
        </mxCell>
        <mxCell id="D8Gry01iI4OsWeRALfT7-58" style="edgeStyle=orthogonalEdgeStyle;rounded=0;orthogonalLoop=1;jettySize=auto;html=1;exitX=0.5;exitY=0;exitDx=0;exitDy=0;entryX=0.5;entryY=1;entryDx=0;entryDy=0;" parent="1" source="D8Gry01iI4OsWeRALfT7-18" target="D8Gry01iI4OsWeRALfT7-4" edge="1">
          <mxGeometry relative="1" as="geometry" />
        </mxCell>
        <mxCell id="D8Gry01iI4OsWeRALfT7-18" value="ПО" style="text;html=1;align=center;verticalAlign=middle;whiteSpace=wrap;rounded=0;" parent="1" vertex="1">
          <mxGeometry x="330" y="310" width="60" height="30" as="geometry" />
        </mxCell>
        <mxCell id="D8Gry01iI4OsWeRALfT7-22" style="edgeStyle=orthogonalEdgeStyle;rounded=0;orthogonalLoop=1;jettySize=auto;html=1;exitX=0.5;exitY=0;exitDx=0;exitDy=0;entryX=0.5;entryY=1;entryDx=0;entryDy=0;" parent="1" source="D8Gry01iI4OsWeRALfT7-21" target="D8Gry01iI4OsWeRALfT7-5" edge="1">
          <mxGeometry relative="1" as="geometry" />
        </mxCell>
        <mxCell id="D8Gry01iI4OsWeRALfT7-21" value="ПО" style="text;html=1;align=center;verticalAlign=middle;whiteSpace=wrap;rounded=0;" parent="1" vertex="1">
          <mxGeometry x="620" y="525" width="60" height="30" as="geometry" />
        </mxCell>
        <mxCell id="D8Gry01iI4OsWeRALfT7-24" style="edgeStyle=orthogonalEdgeStyle;rounded=0;orthogonalLoop=1;jettySize=auto;html=1;exitX=0.5;exitY=0;exitDx=0;exitDy=0;entryX=0.5;entryY=1;entryDx=0;entryDy=0;" parent="1" source="D8Gry01iI4OsWeRALfT7-23" target="D8Gry01iI4OsWeRALfT7-10" edge="1">
          <mxGeometry relative="1" as="geometry" />
        </mxCell>
        <mxCell id="D8Gry01iI4OsWeRALfT7-23" value="ПО" style="text;html=1;align=center;verticalAlign=middle;whiteSpace=wrap;rounded=0;" parent="1" vertex="1">
          <mxGeometry x="830" y="570" width="60" height="30" as="geometry" />
        </mxCell>
        <mxCell id="07kaSCb7XOvTgPHqQ_OD-32" style="edgeStyle=orthogonalEdgeStyle;rounded=0;orthogonalLoop=1;jettySize=auto;html=1;exitX=0.5;exitY=0;exitDx=0;exitDy=0;entryX=0.5;entryY=1;entryDx=0;entryDy=0;" edge="1" parent="1" source="D8Gry01iI4OsWeRALfT7-25" target="D8Gry01iI4OsWeRALfT7-6">
          <mxGeometry relative="1" as="geometry" />
        </mxCell>
        <mxCell id="D8Gry01iI4OsWeRALfT7-25" value="список сотрудников" style="text;html=1;align=center;verticalAlign=middle;whiteSpace=wrap;rounded=0;" parent="1" vertex="1">
          <mxGeometry x="330" y="490" width="60" height="30" as="geometry" />
        </mxCell>
        <mxCell id="D8Gry01iI4OsWeRALfT7-28" value="расписание" style="text;html=1;align=center;verticalAlign=middle;whiteSpace=wrap;rounded=0;" parent="1" vertex="1">
          <mxGeometry x="940" y="485" width="60" height="30" as="geometry" />
        </mxCell>
        <mxCell id="D8Gry01iI4OsWeRALfT7-37" style="edgeStyle=orthogonalEdgeStyle;rounded=0;orthogonalLoop=1;jettySize=auto;html=1;exitX=0.5;exitY=0;exitDx=0;exitDy=0;entryX=0.5;entryY=1;entryDx=0;entryDy=0;" parent="1" source="D8Gry01iI4OsWeRALfT7-36" target="D8Gry01iI4OsWeRALfT7-12" edge="1">
          <mxGeometry relative="1" as="geometry" />
        </mxCell>
        <mxCell id="D8Gry01iI4OsWeRALfT7-36" value="ПО" style="text;html=1;align=center;verticalAlign=middle;whiteSpace=wrap;rounded=0;" parent="1" vertex="1">
          <mxGeometry x="1050" y="655" width="60" height="30" as="geometry" />
        </mxCell>
        <mxCell id="07kaSCb7XOvTgPHqQ_OD-17" style="edgeStyle=orthogonalEdgeStyle;rounded=0;orthogonalLoop=1;jettySize=auto;html=1;exitX=1;exitY=0.5;exitDx=0;exitDy=0;entryX=0;entryY=0.5;entryDx=0;entryDy=0;" edge="1" parent="1" source="D8Gry01iI4OsWeRALfT7-38" target="D8Gry01iI4OsWeRALfT7-6">
          <mxGeometry relative="1" as="geometry" />
        </mxCell>
        <mxCell id="D8Gry01iI4OsWeRALfT7-38" value="Изменить свой график" style="rounded=1;whiteSpace=wrap;html=1;" parent="1" vertex="1">
          <mxGeometry x="80" y="400" width="120" height="60" as="geometry" />
        </mxCell>
        <mxCell id="D8Gry01iI4OsWeRALfT7-43" value="сотрудник" style="text;html=1;align=center;verticalAlign=middle;whiteSpace=wrap;rounded=0;" parent="1" vertex="1">
          <mxGeometry x="150" y="490" width="60" height="30" as="geometry" />
        </mxCell>
        <mxCell id="D8Gry01iI4OsWeRALfT7-48" value="изменения в поле: часы" style="text;html=1;align=center;verticalAlign=middle;whiteSpace=wrap;rounded=0;" parent="1" vertex="1">
          <mxGeometry x="220" y="380" width="60" height="30" as="geometry" />
        </mxCell>
        <mxCell id="07kaSCb7XOvTgPHqQ_OD-8" style="edgeStyle=orthogonalEdgeStyle;rounded=0;orthogonalLoop=1;jettySize=auto;html=1;exitX=1;exitY=0.5;exitDx=0;exitDy=0;entryX=0;entryY=0.5;entryDx=0;entryDy=0;" edge="1" parent="1" source="D8Gry01iI4OsWeRALfT7-50" target="D8Gry01iI4OsWeRALfT7-4">
          <mxGeometry relative="1" as="geometry" />
        </mxCell>
        <mxCell id="D8Gry01iI4OsWeRALfT7-50" value="Заполнить форму на отмену заявки" style="rounded=1;whiteSpace=wrap;html=1;" parent="1" vertex="1">
          <mxGeometry x="80" y="230" width="120" height="60" as="geometry" />
        </mxCell>
        <mxCell id="D8Gry01iI4OsWeRALfT7-54" style="edgeStyle=orthogonalEdgeStyle;rounded=0;orthogonalLoop=1;jettySize=auto;html=1;exitX=0.5;exitY=0;exitDx=0;exitDy=0;entryX=0.5;entryY=1;entryDx=0;entryDy=0;" parent="1" target="D8Gry01iI4OsWeRALfT7-50" edge="1">
          <mxGeometry relative="1" as="geometry">
            <mxPoint x="140" y="290" as="sourcePoint" />
          </mxGeometry>
        </mxCell>
        <mxCell id="D8Gry01iI4OsWeRALfT7-52" value="пользователь (пассажир)" style="text;html=1;align=center;verticalAlign=middle;whiteSpace=wrap;rounded=0;" parent="1" vertex="1">
          <mxGeometry x="160" y="320" width="60" height="30" as="geometry" />
        </mxCell>
        <mxCell id="D8Gry01iI4OsWeRALfT7-59" value="заявка" style="text;html=1;align=center;verticalAlign=middle;whiteSpace=wrap;rounded=0;" parent="1" vertex="1">
          <mxGeometry x="220" y="270" width="60" height="30" as="geometry" />
        </mxCell>
        <mxCell id="07kaSCb7XOvTgPHqQ_OD-7" style="edgeStyle=orthogonalEdgeStyle;rounded=0;orthogonalLoop=1;jettySize=auto;html=1;exitX=0.675;exitY=0.016;exitDx=0;exitDy=0;entryX=0.25;entryY=1;entryDx=0;entryDy=0;exitPerimeter=0;" edge="1" parent="1" source="07kaSCb7XOvTgPHqQ_OD-2" target="D8Gry01iI4OsWeRALfT7-1">
          <mxGeometry relative="1" as="geometry" />
        </mxCell>
        <mxCell id="07kaSCb7XOvTgPHqQ_OD-2" value="электронная форма" style="text;html=1;align=center;verticalAlign=middle;whiteSpace=wrap;rounded=0;" vertex="1" parent="1">
          <mxGeometry x="70" y="170" width="60" height="30" as="geometry" />
        </mxCell>
        <mxCell id="07kaSCb7XOvTgPHqQ_OD-5" style="edgeStyle=orthogonalEdgeStyle;rounded=0;orthogonalLoop=1;jettySize=auto;html=1;exitX=0.5;exitY=0;exitDx=0;exitDy=0;entryX=0.838;entryY=0.983;entryDx=0;entryDy=0;entryPerimeter=0;" edge="1" parent="1" source="D8Gry01iI4OsWeRALfT7-2" target="D8Gry01iI4OsWeRALfT7-1">
          <mxGeometry relative="1" as="geometry" />
        </mxCell>
        <mxCell id="07kaSCb7XOvTgPHqQ_OD-9" value="электронная форма" style="text;html=1;align=center;verticalAlign=middle;whiteSpace=wrap;rounded=0;" vertex="1" parent="1">
          <mxGeometry x="70" y="320" width="60" height="30" as="geometry" />
        </mxCell>
        <mxCell id="07kaSCb7XOvTgPHqQ_OD-12" style="edgeStyle=orthogonalEdgeStyle;rounded=0;orthogonalLoop=1;jettySize=auto;html=1;exitX=0.25;exitY=0;exitDx=0;exitDy=0;" edge="1" parent="1" source="D8Gry01iI4OsWeRALfT7-52">
          <mxGeometry relative="1" as="geometry">
            <mxPoint x="174" y="290" as="targetPoint" />
            <Array as="points">
              <mxPoint x="174" y="310" />
            </Array>
          </mxGeometry>
        </mxCell>
        <mxCell id="07kaSCb7XOvTgPHqQ_OD-13" style="edgeStyle=orthogonalEdgeStyle;rounded=0;orthogonalLoop=1;jettySize=auto;html=1;exitX=0.5;exitY=0;exitDx=0;exitDy=0;entryX=0.163;entryY=0.988;entryDx=0;entryDy=0;entryPerimeter=0;" edge="1" parent="1" source="07kaSCb7XOvTgPHqQ_OD-9" target="D8Gry01iI4OsWeRALfT7-50">
          <mxGeometry relative="1" as="geometry" />
        </mxCell>
        <mxCell id="07kaSCb7XOvTgPHqQ_OD-16" style="edgeStyle=orthogonalEdgeStyle;rounded=0;orthogonalLoop=1;jettySize=auto;html=1;exitX=0.5;exitY=0;exitDx=0;exitDy=0;entryX=0.25;entryY=1;entryDx=0;entryDy=0;" edge="1" parent="1" source="07kaSCb7XOvTgPHqQ_OD-14" target="D8Gry01iI4OsWeRALfT7-38">
          <mxGeometry relative="1" as="geometry" />
        </mxCell>
        <mxCell id="07kaSCb7XOvTgPHqQ_OD-14" value="электронная форма" style="text;html=1;align=center;verticalAlign=middle;whiteSpace=wrap;rounded=0;" vertex="1" parent="1">
          <mxGeometry x="80" y="495" width="60" height="30" as="geometry" />
        </mxCell>
        <mxCell id="07kaSCb7XOvTgPHqQ_OD-15" style="edgeStyle=orthogonalEdgeStyle;rounded=0;orthogonalLoop=1;jettySize=auto;html=1;exitX=0.5;exitY=0;exitDx=0;exitDy=0;entryX=0.838;entryY=0.951;entryDx=0;entryDy=0;entryPerimeter=0;" edge="1" parent="1" source="D8Gry01iI4OsWeRALfT7-43" target="D8Gry01iI4OsWeRALfT7-38">
          <mxGeometry relative="1" as="geometry" />
        </mxCell>
      </root>
    </mxGraphModel>
  </diagram>
</mxfile>
